<?xml version="1.0" encoding="iso-8859-1"?>
<!-- Generator: Adobe Illustrator 19.0.0, SVG Export Plug-In . SVG Version: 6.00 Build 0)  -->
<svg version="1.1" id="Capa_1" xmlns="http://www.w3.org/2000/svg" xmlns:xlink="http://www.w3.org/1999/xlink" x="0px" y="0px"
	 viewBox="0 0 512 512" style="enable-background:new 0 0 512 512;" xml:space="preserve">
<g>
	
		<linearGradient id="SVGID_1_" gradientUnits="userSpaceOnUse" x1="-48.743" y1="652.5403" x2="-48.0359" y2="651.8332" gradientTransform="matrix(443.7334 0 0 -443.7334 21736.543 289678.625)">
		<stop  offset="0" style="stop-color:#D4E1F4"/>
		<stop  offset="0.1717" style="stop-color:#D4E1F4"/>
		<stop  offset="0.2" style="stop-color:#D4E1F4"/>
		<stop  offset="0.2001" style="stop-color:#DAE4F4"/>
		<stop  offset="0.2007" style="stop-color:#EBEBF4"/>
		<stop  offset="0.2014" style="stop-color:#F6F1F4"/>
		<stop  offset="0.2023" style="stop-color:#FDF4F4"/>
		<stop  offset="0.205" style="stop-color:#FFF5F4"/>
		<stop  offset="0.2522" style="stop-color:#FFF5F4"/>
		<stop  offset="0.26" style="stop-color:#FFF5F4"/>
		<stop  offset="0.26" style="stop-color:#D4E1F4"/>
		<stop  offset="0.3974" style="stop-color:#D4E1F4"/>
		<stop  offset="0.42" style="stop-color:#D4E1F4"/>
		<stop  offset="0.4201" style="stop-color:#DAE4F4"/>
		<stop  offset="0.4207" style="stop-color:#EBEBF4"/>
		<stop  offset="0.4214" style="stop-color:#F6F1F4"/>
		<stop  offset="0.4223" style="stop-color:#FDF4F4"/>
		<stop  offset="0.425" style="stop-color:#FFF5F4"/>
		<stop  offset="0.4894" style="stop-color:#FFF5F4"/>
		<stop  offset="0.5" style="stop-color:#FFF5F4"/>
		<stop  offset="0.5" style="stop-color:#F9F2F4"/>
		<stop  offset="0.5001" style="stop-color:#E8EBF4"/>
		<stop  offset="0.5003" style="stop-color:#DDE5F4"/>
		<stop  offset="0.5005" style="stop-color:#D6E2F4"/>
		<stop  offset="0.501" style="stop-color:#D4E1F4"/>
		<stop  offset="0.7062" style="stop-color:#D4E1F4"/>
		<stop  offset="0.74" style="stop-color:#D4E1F4"/>
		<stop  offset="0.741" style="stop-color:#FFF5F4"/>
		<stop  offset="0.8346" style="stop-color:#FFF5F4"/>
		<stop  offset="0.85" style="stop-color:#FFF5F4"/>
		<stop  offset="0.851" style="stop-color:#D4E1F4"/>
	</linearGradient>
	<circle style="fill:url(#SVGID_1_);" cx="264.533" cy="281.6" r="221.867"/>
	<g>
		<path style="fill:#A4C2F7;" d="M264.533,59.733c-4.299,0-8.561,0.152-12.8,0.394C369.095,66.897,460.8,164.043,460.8,281.6
			s-91.704,214.703-209.066,221.473c4.239,0.242,8.501,0.394,12.8,0.394c122.534,0,221.867-99.333,221.867-221.867
			S387.067,59.733,264.533,59.733z"/>
		<path style="fill:#A4C2F7;" d="M366.933,196.267L366.933,196.267l-79.9,110.457c-3.763,5.174-9.602,8.441-15.98,8.942
			c-6.378,0.5-12.655-1.816-17.179-6.34l0,0c-4.524-4.524-6.84-10.801-6.34-17.179c0.5-6.378,3.768-12.217,8.942-15.98
			L366.933,196.267z"/>
		<path style="fill:#A4C2F7;" d="M247.467,60.452c5.639-0.431,11.318-0.719,17.067-0.719c5.749,0,11.428,0.287,17.067,0.719V34.133
			h21.333c7.069,0,12.8-5.731,12.8-12.8l0,0c0-7.069-5.731-12.8-12.8-12.8h-76.8c-7.069,0-12.8,5.731-12.8,12.8l0,0
			c0,7.069,5.731,12.8,12.8,12.8h21.333V60.452z"/>
		
			<rect x="445.185" y="65.419" transform="matrix(-0.7071 0.7071 -0.7071 -0.7071 847.4398 -186.0497)" style="fill:#A4C2F7;" width="34.133" height="34.133"/>
	</g>
	<g>
		<path style="fill:#428DFF;" d="M269.325,324.267c-13.167-0.008-24.833-8.489-28.903-21.011
			c-4.07-12.522,0.382-26.241,11.028-33.989l110.483-79.917c3.396-2.453,8.071-2.079,11.033,0.883
			c2.962,2.962,3.337,7.637,0.883,11.033l-79.9,110.458c-5.231,7.209-13.361,11.76-22.242,12.45
			C270.908,324.233,270.117,324.267,269.325,324.267z M328.867,234.333l-67.392,48.75c-3.147,2.298-5.132,5.858-5.434,9.744
			c-0.301,3.886,1.111,7.709,3.867,10.465c2.764,2.744,6.582,4.155,10.467,3.867c3.896-0.299,7.465-2.295,9.758-5.458
			L328.867,234.333z"/>
		<path style="fill:#428DFF;" d="M281.6,68.983c-0.217,0-0.433-0.008-0.65-0.025c-10.925-0.933-21.909-0.933-32.833,0
			c-2.371,0.191-4.713-0.625-6.45-2.25c-1.742-1.615-2.732-3.883-2.733-6.258V42.667h-12.8c-11.782,0-21.333-9.551-21.333-21.333
			S214.351,0,226.133,0h76.8c11.782,0,21.333,9.551,21.333,21.333s-9.551,21.333-21.333,21.333h-12.8V60.45
			C290.133,65.163,286.313,68.983,281.6,68.983z M264.533,51.2c2.733,0,5.567,0.058,8.533,0.183v-17.25
			c-0.001-2.264,0.897-4.435,2.498-6.035s3.772-2.499,6.035-2.498h21.333c2.356,0,4.267-1.91,4.267-4.267s-1.91-4.267-4.267-4.267
			h-76.8c-2.356,0-4.267,1.91-4.267,4.267s1.91,4.267,4.267,4.267h21.333c2.264-0.001,4.435,0.897,6.035,2.498
			s2.499,3.772,2.498,6.035v17.25C258.967,51.258,261.8,51.2,264.533,51.2z"/>
		<path style="fill:#428DFF;" d="M420.025,133.25c-3.451-0.001-6.562-2.08-7.882-5.268c-1.32-3.188-0.591-6.858,1.849-9.298
			l30.175-30.167c3.332-3.332,8.735-3.332,12.067,0c3.332,3.332,3.332,8.735,0,12.067l-30.175,30.167
			C424.46,132.353,422.289,133.253,420.025,133.25L420.025,133.25z"/>
		<path style="fill:#428DFF;" d="M462.267,115.15c-2.263,0-4.434-0.899-6.033-2.5l-24.142-24.142c-1.601-1.6-2.5-3.77-2.5-6.033
			c0-2.263,0.899-4.433,2.5-6.033l24.142-24.133c1.6-1.601,3.77-2.5,6.033-2.5c2.263,0,4.434,0.899,6.033,2.5l24.133,24.134
			c1.601,1.6,2.5,3.77,2.5,6.033c0,2.263-0.899,4.433-2.5,6.033L468.3,112.65C466.7,114.251,464.53,115.15,462.267,115.15
			L462.267,115.15z M450.192,82.475l12.075,12.075l12.067-12.075l-12.067-12.066L450.192,82.475z"/>
		<path style="fill:#428DFF;" d="M264.533,93.867c-2.264,0.001-4.435-0.897-6.035-2.498c-1.601-1.601-2.499-3.772-2.498-6.035v-25.6
			c0-4.713,3.821-8.533,8.533-8.533c4.713,0,8.533,3.821,8.533,8.533v25.6c0.001,2.264-0.897,4.435-2.498,6.035
			C268.968,92.969,266.797,93.868,264.533,93.867L264.533,93.867z"/>
		<path style="fill:#428DFF;" d="M264.533,512c-2.264,0.001-4.435-0.897-6.035-2.498c-1.601-1.601-2.499-3.772-2.498-6.035v-25.6
			c0-4.713,3.821-8.533,8.533-8.533c4.713,0,8.533,3.821,8.533,8.533v25.6c0.001,2.264-0.897,4.435-2.498,6.035
			C268.968,511.103,266.797,512.001,264.533,512z"/>
		<path style="fill:#428DFF;" d="M485.008,290.133h-25.6c-4.713,0-8.533-3.821-8.533-8.533s3.821-8.533,8.533-8.533h25.6
			c4.713,0,8.533,3.82,8.533,8.533S489.721,290.133,485.008,290.133z"/>
		<path style="fill:#428DFF;" d="M361.267,120.158c-3.048-0.002-5.863-1.629-7.386-4.269c-1.523-2.64-1.522-5.892,0.002-8.531
			l12.8-22.167c2.358-4.08,7.575-5.477,11.656-3.121c4.081,2.356,5.481,7.573,3.127,11.655l-12.8,22.167
			C367.142,118.536,364.319,120.163,361.267,120.158L361.267,120.158z"/>
		<path style="fill:#428DFF;" d="M455.275,401.067c-1.495,0.001-2.964-0.393-4.258-1.142l-22.167-12.8
			c-2.642-1.523-4.271-4.341-4.272-7.392c-0.001-3.05,1.626-5.869,4.268-7.394s5.896-1.524,8.537,0.002l22.167,12.8
			c3.348,1.931,4.98,5.871,3.978,9.604C462.526,398.479,459.14,401.072,455.275,401.067z"/>
		<path style="fill:#428DFF;" d="M374.083,482.275c-3.053,0.005-5.875-1.622-7.4-4.267l-12.8-22.167
			c-1.526-2.641-1.527-5.896-0.002-8.537c1.525-2.642,4.344-4.269,7.394-4.268c3.05,0.001,5.868,1.629,7.392,4.272l12.8,22.167
			c1.524,2.639,1.525,5.891,0.002,8.531C379.946,480.646,377.131,482.273,374.083,482.275z"/>
		<path style="fill:#428DFF;" d="M433.125,192c-3.865,0.005-7.251-2.588-8.253-6.321c-1.002-3.733,0.63-7.673,3.978-9.604
			l22.167-12.8c4.082-2.353,9.299-0.954,11.655,3.127c2.356,4.081,0.958,9.298-3.121,11.656l-22.167,12.8
			C436.089,191.607,434.62,192.001,433.125,192L433.125,192z"/>
		<path style="fill:#428DFF;" d="M263.142,512c-17.406-0.016-34.754-1.995-51.717-5.9c-4.593-1.054-7.462-5.632-6.408-10.225
			c1.054-4.593,5.632-7.462,10.225-6.408c85.616,19.764,174.593-14.988,224.15-87.547s49.557-168.081,0-240.64
			S300.858,53.969,215.242,73.733c-4.593,1.054-9.171-1.815-10.225-6.408c-1.054-4.593,1.815-9.171,6.408-10.225
			c86.296-19.882,176.351,11.458,231.658,80.62c55.308,69.162,66.079,163.904,27.708,243.716
			C432.42,461.248,351.699,512.003,263.142,512L263.142,512z"/>
		<path style="fill:#428DFF;" d="M187.733,136.533h-42.667c-4.713,0-8.533-3.821-8.533-8.533c0-4.713,3.82-8.533,8.533-8.533h42.667
			c4.713,0,8.533,3.821,8.533,8.533C196.267,132.713,192.446,136.533,187.733,136.533z"/>
		<path style="fill:#428DFF;" d="M187.733,196.267H102.4c-4.713,0-8.533-3.821-8.533-8.533c0-4.713,3.821-8.533,8.533-8.533h85.333
			c4.713,0,8.533,3.821,8.533,8.533C196.267,192.446,192.446,196.267,187.733,196.267z"/>
		<path style="fill:#428DFF;" d="M187.733,256h-128c-4.713,0-8.533-3.82-8.533-8.533c0-4.713,3.821-8.533,8.533-8.533h128
			c4.713,0,8.533,3.821,8.533,8.533C196.267,252.18,192.446,256,187.733,256z"/>
		<path style="fill:#428DFF;" d="M187.733,315.733H25.6c-4.713,0-8.533-3.82-8.533-8.533s3.821-8.533,8.533-8.533h162.133
			c4.713,0,8.533,3.82,8.533,8.533S192.446,315.733,187.733,315.733z"/>
		<path style="fill:#428DFF;" d="M187.733,375.467H76.8c-4.713,0-8.533-3.82-8.533-8.533s3.821-8.533,8.533-8.533h110.933
			c4.713,0,8.533,3.82,8.533,8.533S192.446,375.467,187.733,375.467z"/>
		<path style="fill:#428DFF;" d="M187.733,435.2H128c-4.713,0-8.533-3.82-8.533-8.533s3.821-8.533,8.533-8.533h59.733
			c4.713,0,8.533,3.82,8.533,8.533S192.446,435.2,187.733,435.2z"/>
	</g>
</g>
<g>
</g>
<g>
</g>
<g>
</g>
<g>
</g>
<g>
</g>
<g>
</g>
<g>
</g>
<g>
</g>
<g>
</g>
<g>
</g>
<g>
</g>
<g>
</g>
<g>
</g>
<g>
</g>
<g>
</g>
</svg>
